<svg width="751" height="729" viewBox="0 0 751 729" fill="none" xmlns="http://www.w3.org/2000/svg">
<path d="M191.059 0C188.59 0.0125 186.141 0.08125 183.684 0.195313L452.043 403.466H680.559C704.543 377.05 724.113 348.367 736.324 315.091H584.956C573.523 343.481 545.681 363.673 513.323 363.673C470.865 363.673 436.174 328.934 436.174 286.475C436.174 268.606 442.346 252.134 452.627 239.014L375.823 117.678C375.776 117.761 375.724 117.839 375.676 117.922C373.827 114.719 371.934 111.616 370.013 108.547C322.973 33.4125 255.513 -0.349999 191.06 0.00312626L191.059 0ZM548.334 4.15C492.296 4.6625 434.821 32.3625 390.865 94.2359H709.81C671.562 36.8281 610.852 3.57344 548.332 4.15156L548.334 4.15ZM151.51 4.54063C133.549 8.64063 116.229 15.4891 100.141 24.8531C116.816 39.0406 127.438 60.1656 127.438 83.6406C127.438 103.516 119.824 121.688 107.37 135.398L174.849 240.57H308.59L151.51 4.54063ZM50.2383 35.6422C23.5602 35.6422 2.23832 56.9625 2.23832 83.6422C2.23832 110.319 23.5602 131.589 50.2383 131.589C76.9164 131.589 98.2383 110.32 98.2383 83.6422C98.2383 56.9641 76.9164 35.6422 50.2383 35.6422ZM414.057 123.436L474.948 219.577C486.26 213.039 499.377 209.275 513.323 209.275C555.588 209.275 590.202 243.697 590.521 285.884H744.818C748.841 267.436 750.688 247.619 750.045 226.119C748.896 187.752 740.299 153.213 726.263 123.434H414.06L414.057 123.436ZM8.63519 148.533C2.35394 172.002 -0.71637 197.939 0.141443 226.12C0.28988 231.031 0.599256 235.831 1.01957 240.573H140.181L83.9774 152.98C73.7696 157.975 62.3211 160.792 50.2383 160.792C34.9414 160.792 20.6664 156.281 8.63676 148.534L8.63519 148.533ZM513.323 238.475C486.646 238.475 465.374 259.794 465.374 286.472C465.374 313.15 486.646 334.472 513.324 334.472C540.002 334.472 561.324 313.15 561.324 286.472C561.324 259.794 540.002 238.472 513.324 238.472L513.323 238.475ZM5.46332 269.772C11.2336 296.238 21.3805 320.089 34.7602 342.186H280.023L284.32 348.972L405.66 540.573L419.866 562.988H304.488C302.296 573.863 297.81 583.953 291.548 592.675C326.179 631.053 356.134 674.82 375.677 728.222C430.609 586.122 560.259 517.484 651.559 432.666H436.371L432.027 426.119L327.974 269.775H5.46332V269.772ZM54.9258 371.386C88.0399 413.933 132.732 450.705 178.852 489.063C192.341 477.572 209.802 470.605 228.802 470.605C266.484 470.605 298.096 497.955 304.732 533.789H366.795L263.957 371.386H54.9258ZM228.801 499.805C202.124 499.805 180.804 521.124 180.804 547.802C180.804 574.48 202.124 595.802 228.804 595.802C255.481 595.802 276.752 574.48 276.752 547.802C276.752 521.124 255.479 499.802 228.799 499.802L228.801 499.805Z" fill="#5F8BFB"/>
</svg>
