<svg width="800" height="800" viewBox="0 0 800 800" fill="none" xmlns="http://www.w3.org/2000/svg">
<g clip-path="url(#clip0_67_8)">
<path fill-rule="evenodd" clip-rule="evenodd" d="M440 267.126C440 288.154 422.08 305.221 400 305.221C377.92 305.221 360 288.154 360 267.126C360 246.097 377.92 229.03 400 229.03C422.08 229.03 440 246.097 440 267.126ZM680 704.764H440V438.097C440 417.069 422.08 400.002 400 400.002C377.92 400.002 360 417.069 360 438.097V704.764H120C97.9198 704.764 80.0002 687.697 80.0002 666.669V133.335C80.0002 112.307 97.9198 95.2401 120 95.2401H680C702.08 95.2401 720 112.307 720 133.335V666.669C720 687.697 702.08 704.764 680 704.764ZM0 95.2401V704.764C0 746.859 35.8002 780.954 80.0002 780.954H720C764.2 780.954 800 746.859 800 704.764V95.2401C800 53.1829 764.2 19.0496 720 19.0496H80.0002C35.8002 19.0496 0 53.1829 0 95.2401Z" fill="white"/>
</g>
<defs>
<clipPath id="clip0_67_8">
<rect width="800" height="800" fill="white"/>
</clipPath>
</defs>
</svg>
